<?xml version="1.0" encoding="UTF-8"?>
<svg version="1.1" xmlns="http://www.w3.org/2000/svg" width="500" height="500">
<path d="M0 0 C0.65959717 0.22389404 1.31919434 0.44778809 1.9987793 0.6784668 C7.01189881 2.57986076 9.30465149 4.91847567 12.3125 9.1875 C13.86667619 13.85002858 13.85698802 17.67503327 12.1875 22.3125 C9.11368031 27.02569019 6.26998217 29.74473618 0.703125 31.00390625 C-4.36165937 31.51939262 -8.53079041 30.00734782 -13.25 28.3125 C-21.7569503 25.35297321 -29.42711902 24.01532523 -38.4375 24.0625 C-39.19160156 24.05863281 -39.94570312 24.05476563 -40.72265625 24.05078125 C-43.96952205 24.05654833 -46.58637065 24.15379022 -49.6875 25.1875 C-49.80388187 30.54106579 -48.30005391 33.06243926 -44.75 37.0625 C-43.08363305 38.7914535 -41.39581748 40.49998395 -39.6875 42.1875 C-38.95402344 42.93128906 -38.22054687 43.67507812 -37.46484375 44.44140625 C-31.71421952 49.9552981 -25.36127785 54.17694803 -18.57617188 58.29467773 C-12.20183413 62.22751559 -8.77247785 65.82080174 -6.6875 73.1875 C-6.46044922 76.16357422 -6.46044922 76.16357422 -6.4921875 79.2421875 C-6.50185547 80.90507812 -6.50185547 80.90507812 -6.51171875 82.6015625 C-6.53685547 84.31472656 -6.53685547 84.31472656 -6.5625 86.0625 C-6.57152344 87.2278125 -6.58054687 88.393125 -6.58984375 89.59375 C-6.61332568 92.45854577 -6.64616859 95.32291535 -6.6875 98.1875 C-6.04240479 98.44217041 -5.39730957 98.69684082 -4.73266602 98.95922852 C14.29626076 106.50721968 32.94708363 114.74308094 51.51507568 123.3548584 C53.16331419 124.11839094 54.81326334 124.8782279 56.46337891 125.63769531 C69.17844578 131.4974353 81.4982474 137.93576383 93.72705078 144.75 C96.1443851 146.09402875 98.56849192 147.42462984 100.99609375 148.75 C148.787198 174.91065676 148.787198 174.91065676 152.3125 186.1875 C153.19020397 192.38462197 153.06925736 197.97651398 149.3125 203.1875 C136.84083692 216.97383981 115.67529014 218.05224593 98.3125 219.1875 C90.22982025 219.51595323 82.14048935 219.46210937 74.05273438 219.44628906 C71.68817538 219.4490064 69.32361724 219.45257146 66.95906067 219.45690918 C60.59751328 219.46594721 54.2360315 219.46252472 47.87448311 219.45615101 C43.88748497 219.45311069 39.90049605 219.45327594 35.91349792 219.45513153 C34.91460514 219.45559123 34.91460514 219.45559123 33.8955327 219.45606022 C32.541887 219.45669979 31.18824131 219.45734822 29.83459562 219.4580054 C17.19956355 219.46368186 4.5645607 219.45719325 -8.07046658 219.44640467 C-18.86583998 219.43747161 -29.66117034 219.43902442 -40.45654297 219.44824219 C-53.05241206 219.4589926 -65.64825567 219.46313279 -78.2441287 219.45701766 C-79.59225177 219.45638069 -80.94037485 219.45575195 -82.28849792 219.45513153 C-82.95146272 219.45482298 -83.61442752 219.45451443 -84.29748216 219.45419653 C-88.92552622 219.45248383 -93.55355322 219.45545375 -98.18159485 219.46009064 C-104.43298061 219.4659178 -110.68428603 219.46177013 -116.93566322 219.45030212 C-119.21388428 219.44768401 -121.49211223 219.44837107 -123.77033043 219.45282745 C-177.66399044 219.54843387 -177.66399044 219.54843387 -193.625 205.625 C-194.305625 204.820625 -194.98625 204.01625 -195.6875 203.1875 C-196.265 202.506875 -196.8425 201.82625 -197.4375 201.125 C-200.16587754 196.89601482 -200.28930325 192.10971169 -199.6875 187.1875 C-195.6754279 172.29376471 -173.65050318 163.2063067 -161.328125 156.0546875 C-155.48253861 152.70266569 -149.58989941 149.43815019 -143.6875 146.1875 C-142.62950195 145.60097656 -141.57150391 145.01445312 -140.48144531 144.41015625 C-107.59627574 126.23291542 -73.13444096 109.7370381 -37.6875 97.1875 C-36.23438234 92.27596231 -35.65272243 88.23904961 -36.6875 83.1875 C-40.32329683 78.63841451 -45.72547585 75.73202972 -50.56787109 72.62109375 C-63.63141107 63.78567487 -76.40142516 50.49641013 -80.1875 34.921875 C-81.94529319 25.30894347 -80.29724695 15.31248675 -74.6875 7.1875 C-66.74361123 -1.91487255 -57.85392976 -5.47209201 -46.0456543 -6.65625 C-30.55515024 -7.68264223 -14.58426774 -5.1506401 0 0 Z M-33.69921875 126.828125 C-34.37603699 127.10610428 -35.05285522 127.38408356 -35.75018311 127.67048645 C-37.96262401 128.58312068 -40.16897414 129.50947682 -42.375 130.4375 C-43.91736855 131.08007006 -45.45976795 131.72256607 -47.00219727 132.36499023 C-60.39215245 137.96771163 -73.5791849 143.95376793 -86.6875 150.1875 C-88.9648217 151.25916143 -91.24216595 152.33077497 -93.51953125 153.40234375 C-111.8534904 162.0781428 -129.63845143 171.49276265 -147.0625 181.875 C-147.93189209 182.39263916 -148.80128418 182.91027832 -149.69702148 183.44360352 C-150.48536377 183.91983154 -151.27370605 184.39605957 -152.0859375 184.88671875 C-152.78380371 185.30783936 -153.48166992 185.72895996 -154.20068359 186.1628418 C-154.69133301 186.500979 -155.18198242 186.83911621 -155.6875 187.1875 C-155.6875 187.5175 -155.6875 187.8475 -155.6875 188.1875 C-149.88809977 189.18643117 -144.27254495 189.32830998 -138.39512634 189.31448364 C-137.37249067 189.31604363 -136.349855 189.31760362 -135.29623038 189.31921089 C-131.87707828 189.32319253 -128.45797076 189.32004222 -125.03881836 189.31689453 C-122.58449782 189.31824982 -120.13017749 189.32003047 -117.67585754 189.32220459 C-111.70638909 189.32629023 -105.73693806 189.32569341 -99.76747029 189.32279195 C-94.91547539 189.32053146 -90.063484 189.3202282 -85.21148872 189.32131577 C-84.52032918 189.321469 -83.82916964 189.32162223 -83.11706587 189.32178011 C-81.71290099 189.32209984 -80.30873612 189.32242405 -78.90457124 189.3227527 C-65.74592404 189.32560246 -52.58728381 189.32232825 -39.42863775 189.31695233 C-28.1414679 189.31248376 -16.85430834 189.31326164 -5.56713867 189.31787109 C7.5467168 189.32322403 20.66056617 189.32532886 33.77442259 189.32225883 C35.17304989 189.32194029 36.57167719 189.32162592 37.97030449 189.32131577 C38.65842287 189.32116149 39.34654125 189.32100721 40.0555117 189.32084826 C44.90137455 189.31998535 49.74723353 189.32144113 54.59309578 189.32379532 C61.11591851 189.32689462 67.63872482 189.32468432 74.16154671 189.31890106 C76.55690478 189.3175776 78.95226449 189.31796058 81.34762192 189.32016373 C84.61414012 189.32289139 87.88059578 189.31947419 91.14710999 189.31448364 C92.57283777 189.31782973 92.57283777 189.31782973 94.02736813 189.32124341 C98.57154841 189.30775409 102.84087915 189.11800104 107.3125 188.1875 C105.04103488 185.70610196 102.72056666 184.12347813 99.796875 182.47265625 C98.88687744 181.95727295 97.97687988 181.44188965 97.03930664 180.91088867 C96.05696045 180.36279541 95.07461426 179.81470215 94.0625 179.25 C93.04341553 178.67805908 92.02433105 178.10611816 90.97436523 177.5168457 C80.20643838 171.51024143 69.29277607 165.79462888 58.3125 160.1875 C57.59046387 159.81818359 56.86842773 159.44886719 56.12451172 159.06835938 C52.25355807 157.09467304 48.36731098 155.15476358 44.46533203 153.24316406 C42.94124828 152.4958134 41.41896015 151.74479573 39.89794922 150.99121094 C24.09101062 143.17567388 7.9677034 136.23344988 -8.34619141 129.55908203 C-10.45333988 128.69411344 -12.55540772 127.81656136 -14.64990234 126.92138672 C-15.52211426 126.55416504 -16.39432617 126.18694336 -17.29296875 125.80859375 C-18.0305542 125.49204834 -18.76813965 125.17550293 -19.52807617 124.84936523 C-24.80488149 123.23201993 -28.79165052 124.75711503 -33.69921875 126.828125 Z " fill="#000000" transform="translate(273.6875,43.8125)"/>
<path d="M0 0 C1.875 0.6875 1.875 0.6875 2.875 1.6875 C3.36639998 6.87411571 1.9070819 10.94043608 -0.01171875 15.6640625 C-0.62516919 17.22838549 -1.23827494 18.79284369 -1.85107422 20.35742188 C-2.17235291 21.16751709 -2.49363159 21.9776123 -2.824646 22.81225586 C-15.34864901 51.33244646 -15.34864901 51.33244646 -14.9375 81.4375 C-13.28796055 83.78081997 -13.28796055 83.78081997 -10.9375 84.875 C-4.11107144 84.41990476 0.32886732 79.4030628 4.6875 74.5625 C5.41582031 73.71429688 6.14414063 72.86609375 6.89453125 71.9921875 C11.40356153 66.7449925 11.40356153 66.7449925 14.4375 66.375 C16.875 66.6875 16.875 66.6875 18.875 68.6875 C18.74915791 73.52822572 15.99911185 76.29816029 12.8125 79.625 C12.31443848 80.15279053 11.81637695 80.68058105 11.30322266 81.22436523 C5.18768794 87.59069786 -1.10196006 93.26530456 -10.125 94.6875 C-14.03547668 94.64460629 -16.83562504 93.72814852 -19.88671875 91.265625 C-23.82274382 87.11040241 -25.14608997 83.26728718 -26.125 77.6875 C-27.61 78.1825 -27.61 78.1825 -29.125 78.6875 C-31.37580101 78.55460095 -33.62574245 78.40686882 -35.875 78.25 C-40.95987285 78.10932378 -40.95987285 78.10932378 -45.35546875 80.2890625 C-47.08850103 82.35455699 -47.08850103 82.35455699 -48.609375 84.578125 C-51.66278179 88.82771177 -55.96296053 91.70661342 -61.125 92.6875 C-66.75557511 93.05076291 -70.27138519 92.8864734 -75.125 89.6875 C-81.44135434 83.02023708 -81.125 78.16548402 -81.125 68.6875 C-90.695 73.3075 -100.265 77.9275 -110.125 82.6875 C-109.465 87.3075 -108.805 91.9275 -108.125 96.6875 C-108.28981838 105.752511 -108.58477664 112.99166415 -115.0625 119.69140625 C-120.93743888 125.03716865 -125.11245921 126.10802098 -133.0390625 126.03125 C-137.67041746 125.51535223 -140.76965366 123.88306794 -144.125 120.6875 C-147.15572474 116.33083318 -147.73659148 112.92971267 -147.125 107.6875 C-143.53168609 94.28602106 -134.08484138 86.24979055 -123.125 78.6875 C-125.10722037 72.38606649 -127.48092408 66.36193775 -130.125 60.3125 C-139.67373263 37.95544465 -139.67373263 37.95544465 -136 26.5625 C-133.59303464 20.95371096 -130.13326188 16.24773164 -124.4375 13.75 C-116.75158277 11.40315504 -109.27715377 11.83494458 -102.12890625 15.4921875 C-96.42883834 18.89222801 -93.22435447 22.15617497 -91.125 28.6875 C-90.8125 31.5 -90.8125 31.5 -91.125 33.6875 C-93.125 35.6875 -93.125 35.6875 -95.5 35.8125 C-98.61283061 34.47842974 -98.73599298 33.85547811 -100.0625 30.875 C-101.96912446 26.63636874 -103.8344382 24.7502701 -108.125 22.6875 C-114.14859793 21.23017792 -118.70700176 21.4989769 -124.125 24.6875 C-126.87879231 27.61340433 -127.1094546 29.56702312 -127.625 33.5625 C-127.09908017 46.88580224 -119.34172849 60.66184053 -114.125 72.6875 C-109.39666951 71.22164892 -104.95950122 69.32406492 -100.49609375 67.203125 C-99.78397232 66.86504822 -99.07185089 66.52697144 -98.33815002 66.1786499 C-96.84036244 65.46469734 -95.34362768 64.7485323 -93.84790039 64.03027344 C-92.32561601 63.30238701 -90.8002026 62.58100837 -89.27172852 61.86621094 C-87.04775641 60.82610868 -84.83381128 59.76692397 -82.62109375 58.703125 C-81.94388779 58.39038635 -81.26668182 58.07764771 -80.56895447 57.75543213 C-75.84448477 55.44514206 -73.30302156 52.87212176 -70.125 48.6875 C-66.23256982 45.68257186 -62.03802785 43.40903604 -57.0625 43.125 C-50.98145889 43.99372016 -46.31746076 45.98785325 -42.25 50.6875 C-39.03549766 55.22562095 -37.86610123 57.81375174 -38 63.4375 C-38.01804687 64.42234375 -38.03609375 65.4071875 -38.0546875 66.421875 C-38.07789062 67.16953125 -38.10109375 67.9171875 -38.125 68.6875 C-32.72040727 69.29536909 -32.72040727 69.29536909 -27.99609375 67.1796875 C-25.5189151 63.88023035 -24.80903729 60.51327664 -23.9375 56.5625 C-20.88814086 43.97060053 -16.54052989 31.85520803 -12.125 19.6875 C-11.78082031 18.73633301 -11.43664062 17.78516602 -11.08203125 16.80517578 C-10.15301533 14.26002099 -9.20695729 11.72226345 -8.25 9.1875 C-7.97623535 8.4462085 -7.7024707 7.70491699 -7.42041016 6.94116211 C-4.47895169 -0.65866937 -4.47895169 -0.65866937 0 0 Z M-67.125 57.6875 C-70.57887158 62.65723744 -73.125 67.52279442 -73.125 73.6875 C-71.25282202 79.48465764 -71.25282202 79.48465764 -67.125 83.6875 C-63.26338712 84.28819534 -61.45626597 83.86638362 -58 82 C-55.22640181 79.76906233 -53.20272056 77.56434385 -51.125 74.6875 C-52.49985532 73.14583358 -52.49985532 73.14583358 -54.125 71.6875 C-54.785 71.6875 -55.445 71.6875 -56.125 71.6875 C-56.79166667 70.35416667 -57.45833333 69.02083333 -58.125 67.6875 C-58.4653125 67.089375 -58.805625 66.49125 -59.15625 65.875 C-60.28174272 63.33356483 -60.53175506 61.20193591 -60.75 58.4375 C-60.82476562 57.54546875 -60.89953125 56.6534375 -60.9765625 55.734375 C-61.02554688 55.05890625 -61.07453125 54.3834375 -61.125 53.6875 C-63.59635595 53.6875 -65.4846274 56.15897098 -67.125 57.6875 Z M-52.125 54.6875 C-52.785 55.3475 -53.445 56.0075 -54.125 56.6875 C-54.18345809 59.15400198 -54.18345809 59.15400198 -53.125 61.6875 C-50.10759738 64.77389377 -50.10759738 64.77389377 -46.125 65.6875 C-46.70553194 59.57920069 -46.70553194 59.57920069 -50.125 54.6875 C-50.785 54.6875 -51.445 54.6875 -52.125 54.6875 Z M-133.15234375 97.4609375 C-136.69206836 101.14779003 -138.11902818 104.46992636 -138.35546875 109.6015625 C-137.97731275 113.02419473 -136.74642328 114.53658859 -134.125 116.6875 C-130.13476221 118.19492316 -128.4833752 117.8296143 -124.5 116.25 C-120.4174611 113.58865535 -118.4224754 110.34908825 -117.125 105.6875 C-116.40483532 99.34275798 -116.99300849 93.68372612 -119.125 87.6875 C-123.47112217 87.6875 -129.97614158 94.68252558 -133.15234375 97.4609375 Z " fill="#020202" transform="translate(155.125,292.3125)"/>
<path d="M0 0 C0.86625 0.12375 1.7325 0.2475 2.625 0.375 C4.4375 2.875 4.4375 2.875 5.625 5.375 C6.17285156 5.05144531 6.72070312 4.72789062 7.28515625 4.39453125 C11.54329193 2.53914992 16.06927288 2.93564946 20.625 3.375 C23.65390182 4.61128646 25.00599553 5.38238211 26.71875 8.12890625 C31.6773906 20.4186405 24.45173144 36.47090915 19.625 47.875 C18.25 51.03125 18.25 51.03125 16.625 53.375 C14.0625 54.34375 14.0625 54.34375 11.625 54.375 C9.625 52.375 9.625 52.375 9.3203125 49.7421875 C9.69418539 45.61041279 10.93808202 42.31398575 12.5 38.5 C15.25033879 31.67021132 17.98416634 24.86832274 17.75 17.375 C17.73195313 16.611875 17.71390625 15.84875 17.6953125 15.0625 C17.67210937 14.505625 17.64890625 13.94875 17.625 13.375 C16.635 13.045 15.645 12.715 14.625 12.375 C1.37825582 19.14555814 -2.20534956 35.41413392 -6.45703125 48.515625 C-6.75996094 49.45921875 -7.06289063 50.4028125 -7.375 51.375 C-9.73046875 51.99609375 -9.73046875 51.99609375 -12.375 52.375 C-14.6875 50.4375 -14.6875 50.4375 -16.375 48.375 C-17.550625 48.890625 -18.72625 49.40625 -19.9375 49.9375 C-24.11845604 51.48873811 -27.00449849 51.61193439 -31.375 50.375 C-34.3125 48.5 -34.3125 48.5 -36.375 46.375 C-36.375 45.385 -36.375 44.395 -36.375 43.375 C-36.89449219 43.78492188 -37.41398437 44.19484375 -37.94921875 44.6171875 C-44.14437478 49.40383301 -48.28784779 51.95265373 -56.375 51.375 C-59.56920615 50.5578775 -61.19089434 49.53422652 -63.6875 47.375 C-66.74099044 41.94657256 -66.07453076 37.04417727 -64.52734375 31.140625 C-61.48035572 22.00998968 -57.09244188 13.73294914 -52.375 5.375 C-50 5.25 -50 5.25 -47.375 5.375 C-46.715 6.035 -46.055 6.695 -45.375 7.375 C-45.60688282 13.1938096 -47.62812738 17.23520562 -50.375 22.1875 C-53.58687837 28.24767436 -55.6151164 33.38160988 -55.375 40.375 C-55.375 41.035 -55.375 41.695 -55.375 42.375 C-54.323125 42.1275 -53.27125 41.88 -52.1875 41.625 C-51.59582031 41.48578125 -51.00414062 41.3465625 -50.39453125 41.203125 C-45.02860364 39.00278331 -42.01898981 34.84161189 -39.0625 30.0625 C-38.68150146 29.46018555 -38.30050293 28.85787109 -37.90795898 28.23730469 C-34.6600446 23.02077429 -31.73946789 17.64220535 -28.93823242 12.17456055 C-27.59646969 9.56781742 -26.46297985 7.46297985 -24.375 5.375 C-21.75 5.25 -21.75 5.25 -19.375 5.375 C-18.10546875 7.2734375 -18.10546875 7.2734375 -17.375 10.375 C-18.42452607 13.77339171 -20.05256754 16.84947322 -21.6875 20 C-22.53878129 21.70001001 -23.38908416 23.40051042 -24.23828125 25.1015625 C-24.62282471 25.85002441 -25.00736816 26.59848633 -25.40356445 27.36962891 C-27.03806348 30.74378698 -27.49111226 33.36325396 -27.4375 37.0625 C-27.42847656 37.87074219 -27.41945313 38.67898438 -27.41015625 39.51171875 C-27.39855469 40.12660156 -27.38695312 40.74148438 -27.375 41.375 C-21.40116584 41.08359346 -18.31793122 38.56842332 -14.375 34.375 C-7.73763726 26.77869816 -4.92860599 14.74967764 -3.796875 4.90625 C-3.27246024 0.51670425 -3.27246024 0.51670425 0 0 Z " fill="#030303" transform="translate(393.375,332.625)"/>
<path d="M0 0 C2.8992226 0.46761655 3.86675182 0.86675182 6 3 C5.64841908 7.35466889 4.33394934 10.91157922 2.5625 14.875 C-0.52615483 22.11767177 -2.9126949 28.0304379 -1 36 C0.91176961 38.37402319 0.91176961 38.37402319 4.25 38.0625 C10.36510421 36.32988714 12.92744704 31.82938898 16.0625 26.5625 C18 24 18 24 20.625 23.5 C23 24 23 24 25 26 C25 33.48690727 19.30160823 38.75544626 14.4375 43.875 C10.63163435 47.53096285 7.84408344 48.79882726 2.5625 49.375 C-2.4992341 48.84218588 -5.4835543 46.78723957 -8.75 42.9375 C-9.1625 42.298125 -9.575 41.65875 -10 41 C-10.66 40.01 -11.32 39.02 -12 38 C-12.67095703 38.72316406 -12.67095703 38.72316406 -13.35546875 39.4609375 C-19.80698835 46.20133111 -19.80698835 46.20133111 -24 47 C-28.50340904 47.04948801 -31.95902588 46.61100655 -35.875 44.3125 C-40.31428741 39.48151075 -41.64475415 35.10625048 -41.40234375 28.6484375 C-40.16946061 20.5329543 -35.61392208 14.76960874 -29.37890625 9.6953125 C-21.82752279 4.31386682 -15.23952162 3.15373751 -6 4 C-5.01 4.33 -4.02 4.66 -3 5 C-2.690625 4.360625 -2.38125 3.72125 -2.0625 3.0625 C-1 1 -1 1 0 0 Z M-29 21.4375 C-31.18811264 24.86730978 -31.92402973 27.89760549 -32 32 C-31.47458333 34.86069302 -31.47458333 34.86069302 -30 37 C-28.27041488 38.26666642 -28.27041488 38.26666642 -26 38 C-15.78954056 32.78132073 -11.23697875 23.18116505 -7 13 C-8.52017255 11.47982745 -9.88112342 11.68389397 -12 11.5625 C-19.23172211 11.65462385 -24.64278492 15.90333601 -29 21.4375 Z " fill="#020202" transform="translate(466,335)"/>
<path d="M0 0 C2.625 0.9375 2.625 0.9375 5 2 C4.45144652 6.571279 3.58255197 10.67435795 2 15 C2.62648437 14.98839844 3.25296875 14.97679687 3.8984375 14.96484375 C4.71570313 14.95582031 5.53296875 14.94679688 6.375 14.9375 C7.18710938 14.92589844 7.99921875 14.91429687 8.8359375 14.90234375 C11 15 11 15 13 16 C13.75 17.875 13.75 17.875 14 20 C13.34 20.99 12.68 21.98 12 23 C9.09766598 23.28221262 6.34266745 23.41106033 3.4375 23.4375 C-6.41733601 23.61832576 -6.41733601 23.61832576 -15 28 C-15.75770918 30.06345147 -15.75770918 30.06345147 -16 32 C-15.41992188 32.19335938 -14.83984375 32.38671875 -14.2421875 32.5859375 C-12.62734356 33.12421881 -11.01277146 33.66331617 -9.3984375 34.203125 C-7.43603551 34.85512827 -5.46868131 35.49220958 -3.5 36.125 C-1 37 -1 37 0 38 C0.04063832 39.66617115 0.042721 41.33388095 0 43 C-4.7887022 45.53519528 -9.52665291 47.59205019 -14.625 49.4375 C-19.67770136 51.35424402 -23.37134984 52.96816648 -27 57 C-27.66425745 59.59028451 -27.66425745 59.59028451 -28 62 C-27.28344238 61.98952637 -26.56688477 61.97905273 -25.82861328 61.96826172 C-22.59411095 61.92678701 -19.35966447 61.90070108 -16.125 61.875 C-14.99707031 61.85824219 -13.86914062 61.84148437 -12.70703125 61.82421875 C-11.63066406 61.81777344 -10.55429688 61.81132812 -9.4453125 61.8046875 C-8.45031738 61.79421387 -7.45532227 61.78374023 -6.43017578 61.77294922 C-4 62 -4 62 -2 64 C-1.6875 66.5 -1.6875 66.5 -2 69 C-6.87793583 72.25195722 -11.22391379 72.11325659 -17 72 C-17.10957031 72.56847656 -17.21914062 73.13695312 -17.33203125 73.72265625 C-18.37938166 78.82316758 -19.79271753 83.284442 -22 88 C-24.375 88.125 -24.375 88.125 -27 88 C-27.66 87.34 -28.32 86.68 -29 86 C-28.64638402 81.4029922 -27.58012426 77.31900631 -26 73 C-26.69867188 72.67386719 -27.39734375 72.34773438 -28.1171875 72.01171875 C-29.02726563 71.57472656 -29.93734375 71.13773437 -30.875 70.6875 C-31.77992188 70.25824219 -32.68484375 69.82898438 -33.6171875 69.38671875 C-36 68 -36 68 -38 65 C-38.86182453 60.70613086 -38.88616023 56.72090503 -36.85546875 52.77734375 C-32.15342174 46.83972234 -25.82942172 43.96053749 -19 41 C-19.78375 40.401875 -20.5675 39.80375 -21.375 39.1875 C-24.5936561 36.50528658 -25.85856443 34.91933124 -26.5 30.75 C-25.82457043 25.68427822 -23.90276062 23.21123277 -20 20 C-15.59684152 17.41438017 -12.14069901 16 -7 16 C-6.83564453 15.12988281 -6.83564453 15.12988281 -6.66796875 14.2421875 C-5.69027327 9.42524878 -4.56007545 5.26679241 -2 1 C-1.34 0.67 -0.68 0.34 0 0 Z " fill="#020202" transform="translate(230,305)"/>
<path d="M0 0 C1.99954746 -0.04254356 4.00041636 -0.04080783 6 0 C7 1 7 1 7.03491211 2.70082092 C6.31442355 11.28034958 3.900906 19.37656649 1.5625 27.62109375 C1.11721729 29.21367599 0.67264932 30.80645822 0.22875977 32.39942932 C-0.93399651 36.56446197 -2.10676658 40.72660965 -3.28161621 44.88824463 C-4.47806847 49.13397287 -5.66416876 53.38259085 -6.8515625 57.63085938 C-8.58487297 63.82488594 -10.32083432 70.01815679 -12.06640625 76.20874023 C-12.41646729 77.45098862 -12.76652832 78.693237 -13.12719727 79.97312927 C-13.71005902 81.99448774 -14.33474682 84.00424047 -15 86 C-7.89272698 84.06658566 -1.30169878 81.53342765 5.375 78.4375 C6.25027344 78.03853516 7.12554687 77.63957031 8.02734375 77.22851562 C12.61096675 75.14259562 12.61096675 75.14259562 17.11181641 72.88696289 C19.55381558 71.73984846 21.3337955 71.71934689 24 72 C24.99 72.99 24.99 72.99 26 74 C25.89477539 76.43823242 25.89477539 76.43823242 25 79 C18.91627259 84.27797789 10.43870993 87.17401972 3.0625 90.1875 C1.55139648 90.82461914 1.55139648 90.82461914 0.00976562 91.47460938 C-18.07549192 98.9529506 -18.07549192 98.9529506 -25 97 C-25.33 96.67 -25.66 96.34 -26 96 C-25.66649683 86.39249755 -22.8247522 77.41788676 -20.1953125 68.2421875 C-19.7100434 66.52704653 -19.22542539 64.81172122 -18.74142456 63.09622192 C-17.72943646 59.51594369 -16.71191844 55.93730277 -15.68994141 52.35986328 C-14.38509431 47.79177831 -13.09065387 43.22082929 -11.79991341 38.64874077 C-10.80075792 35.11160731 -9.79787238 31.57554065 -8.79369736 28.03982925 C-8.31537348 26.35525172 -7.8377738 24.67046838 -7.36093521 22.98546982 C-6.69219537 20.62585756 -6.01888305 18.26759777 -5.34423828 15.90966797 C-5.15087891 15.22478302 -4.95751953 14.53989807 -4.75830078 13.83425903 C-3.40298093 9.12251105 -1.76600714 4.57411418 0 0 Z " fill="#030303" transform="translate(301,304)"/>
<path d="M0 0 C2.97 0.495 2.97 0.495 6 1 C6.66 0.67 7.32 0.34 8 0 C15.04244482 -0.69269949 15.04244482 -0.69269949 18.9375 2.125 C21.27004844 5.37643116 22 7.00712682 22 11 C20.85625306 14.55163524 19.75700121 17.16189151 17.25 19.9375 C14.07671106 21.43599755 11.46052306 21.25633504 8 21 C7.34 20.67 6.68 20.34 6 20 C5.67 22.31 5.34 24.62 5 27 C3.35 27 1.7 27 0 27 C0 18.09 0 9.18 0 0 Z M6.125 5.125 C4.44531955 7.92446741 4.54257723 9.79804064 5 13 C6.47993156 15.56338689 6.47993156 15.56338689 9 17 C12.13362718 17.08892339 12.13362718 17.08892339 15 16 C17.31282587 12.53076119 17.42478586 11.07794425 17 7 C16 5 16 5 14 4 C10.85075452 3.60634432 8.88090884 3.47145469 6.125 5.125 Z " fill="#030303" transform="translate(229,429)"/>
<path d="M0 0 C18.81 0 37.62 0 57 0 C57 1.65 57 3.3 57 5 C38.19 5 19.38 5 0 5 C0 3.35 0 1.7 0 0 Z " fill="#010101" transform="translate(73,437)"/>
<path d="M0 0 C18.81 0 37.62 0 57 0 C57 1.65 57 3.3 57 5 C38.19 5 19.38 5 0 5 C0 3.35 0 1.7 0 0 Z " fill="#010101" transform="translate(370,433)"/>
<path d="M0 0 C2.475 0.495 2.475 0.495 5 1 C5.66 0.67 6.32 0.34 7 0 C13.99015219 -0.68755595 13.99015219 -0.68755595 17.9375 2 C20.69292627 6.00789275 21 8.13135738 21 13 C19.44911782 16.67314201 17.51812815 19.090159 14 21 C10.03207421 21.4133256 7.40728075 21.09678815 4 19 C4 21.64 4 24.28 4 27 C2.68 27 1.36 27 0 27 C0 18.09 0 9.18 0 0 Z M5.6875 5.6875 C3.84309558 7.87538631 3.84309558 7.87538631 3.5 10.5 C4.1747853 13.87392649 5.16784386 15.06220896 8 17 C11.10293293 17.24677006 11.10293293 17.24677006 14 16 C16.15254366 13.85701707 16.15254366 13.85701707 17 11 C16.18795587 7.82564566 15.31819425 6.31819425 13 4 C9.68835752 3.47710908 8.42195903 3.69208395 5.6875 5.6875 Z " fill="#040404" transform="translate(205,429)"/>
<path d="M0 0 C3 2.0625 3 2.0625 5 5 C5.33 7.31 5.66 9.62 6 12 C0.72 12 -4.56 12 -10 12 C-8.68 13.32 -7.36 14.64 -6 16 C-2.6678502 15.80801478 -2.6678502 15.80801478 0 14 C1.66617115 13.95936168 3.33388095 13.957279 5 14 C3.60478153 17.37177797 2.23717239 19.25017709 -1 21 C-5.47631815 21.66315825 -7.45789932 21.32124485 -11.375 19 C-14.20294954 15.76805766 -14.94719984 14.16573386 -15.17578125 9.99609375 C-14.89558091 6.81426324 -13.75249634 4.6287445 -12 2 C-7.97500157 -0.68333228 -4.72857864 -0.79639219 0 0 Z M-8.9375 5.375 C-10.09120823 6.81590692 -10.09120823 6.81590692 -10 8 C-6.37 8 -2.74 8 1 8 C0.67 7.01 0.34 6.02 0 5 C-4.69525749 3.75783672 -4.69525749 3.75783672 -8.9375 5.375 Z " fill="#030303" transform="translate(307,429)"/>
<path d="M0 0 C0.66 0.66 1.32 1.32 2 2 C2.33 1.34 2.66 0.68 3 0 C4.32 0 5.64 0 7 0 C7 6.6 7 13.2 7 20 C5.35 19.67 3.7 19.34 2 19 C1.01 19.66 0.02 20.32 -1 21 C-5.21178243 21.46797583 -7.28599114 21.46565795 -10.875 19.125 C-13.87388696 16.12611304 -14.21340819 14.33295137 -14.375 10.1875 C-14.31526314 6.43493911 -14.10210616 5.16468736 -12.0625 1.875 C-8.0559189 -0.57800884 -4.60625691 -0.85971396 0 0 Z M-8.9375 5.5625 C-10.45826219 9.05130737 -9.94135898 11.36904394 -9 15 C-6.17431454 17.32038095 -6.17431454 17.32038095 -2.9375 16.8125 C0.29740953 16.26245502 0.29740953 16.26245502 2 13 C2.32502803 9.87973093 2.51151479 7.85252465 0.875 5.125 C-2.59166683 3.0449999 -5.7733731 3.01078476 -8.9375 5.5625 Z " fill="#030303" transform="translate(267,429)"/>
<path d="M0 0 C0.680625 0.01804687 1.36125 0.03609375 2.0625 0.0546875 C3.0215625 0.08949219 3.0215625 0.08949219 4 0.125 C4.99 0.125 5.98 0.125 7 0.125 C8.32 0.125 9.64 0.125 11 0.125 C11 6.725 11 13.325 11 20.125 C9.02 20.125 7.04 20.125 5 20.125 C4.34 20.455 3.68 20.785 3 21.125 C-1.08055043 21.68143869 -2.74051119 21.28167249 -6.3125 19.125 C-9.20414231 16.43881649 -9.96238942 14.01365502 -10.17578125 10.12109375 C-9.89558091 6.93926324 -8.75249634 4.7537445 -7 2.125 C-3.94669853 0.08946569 -3.41134829 -0.11629596 0 0 Z M-3.875 5.1875 C-5.66235303 8.26571911 -5.43386742 10.65406068 -5 14.125 C-3.44202118 16.27282671 -3.44202118 16.27282671 -1 17.125 C1.8001969 16.98840503 3.48077872 16.43653277 5.875 15 C7.71002135 11.94163109 6.79038061 9.46891796 6 6.125 C4.12061828 3.82672688 4.12061828 3.82672688 1.0625 3.8125 C-1.91095098 3.90851379 -1.91095098 3.90851379 -3.875 5.1875 Z " fill="#030303" transform="translate(188,428.875)"/>
<path d="M0 0 C2.475 0.495 2.475 0.495 5 1 C7.34165499 0.73128549 9.67884289 0.40961596 12 0 C12 1.32 12 2.64 12 4 C11.21625 4.226875 10.4325 4.45375 9.625 4.6875 C6.89400364 5.76144784 6.89400364 5.76144784 5.75 8.0625 C4.74207567 12.01020363 4.33565586 15.94563052 4 20 C2.68 20 1.36 20 0 20 C0 13.4 0 6.8 0 0 Z " fill="#080808" transform="translate(279,429)"/>
<path d="M0 0 C1.32 0 2.64 0 4 0 C4 8.91 4 17.82 4 27 C2.68 27 1.36 27 0 27 C0 18.09 0 9.18 0 0 Z " fill="#020202" transform="translate(316,422)"/>
</svg>
